<svg version="1" xmlns="http://www.w3.org/2000/svg" width="2533.333" height="2533.333" viewBox="0 0 1900.000000 1900.000000"><path d="M1049.7 4.2C1040 16.4 987 83.8 983 89c-1.4 1.8-3 3.8-3.5 4.4-.6.6-2.3 2.7-3.8 4.7-1.7 2.3-5.9 5.2-12.1 8.4-8 4.2-9.5 5.4-10.2 8-.4 1.6-.7 3.2-.8 3.5-.1.3-1.2 3.9-2.4 8-1.3 4.1-3.1 10.4-4.2 14-1.1 3.6-3.3 11.2-5 16.9-1.8 5.7-3.3 11.1-3.5 12-.2.9-3.2 10.8-6.5 22.1-3.4 11.3-7.7 25.7-9.5 32-1.9 6.3-3.9 13.1-4.5 15-.6 1.9-1.3 4.2-1.5 5-1.4 5.6-18.8 63.6-19.2 64-.2.3-22.1.5-48.6.5h-48l-4.3 7.2c-2.4 4-4 7.3-3.7 7.3.3 0-.1.8-.9 1.7-.8 1-3.5 5.6-6 10.3-4.2 7.9-5.7 10.5-12.8 23.5-4.6 8.4-8.6 15.7-12.5 23-2.1 3.8-4.8 8.8-6 11-1.2 2.2-3.8 6.9-5.7 10.5-2 3.6-6.8 12.6-10.8 20-4 7.4-9.2 17.1-11.5 21.5-2.4 4.4-6 11.1-8 15-7.6 14.1-21.6 41.4-24 46.9L691 511l13 8.7c7.2 4.7 13 9.2 13 9.9 0 .7-3.2 12.9-7.1 27.1-3.8 14.2-8.3 30.7-9.9 36.8-1.6 6-4.2 15.5-5.8 21.1-1.7 6-2.5 10.6-2 11.5.4.8 5.6 11.3 11.4 23.4 13.3 27.6 24 49.5 38.6 79.5 6.4 12.9 11.8 24.4 12.2 25.5.7 2.2 1.4 2.7 20.9 14.5l13.8 8.3-9.1 4.3c-5 2.4-9.2 4.4-9.4 4.4-.2 0-6.6 3-14.2 6.6-7.7 3.7-17.5 8.3-21.9 10.4-4.4 2.1-12.8 6.1-18.7 8.9-6 2.8-15.4 7.3-21 10-17.8 8.4-32.6 15.6-53.3 25.6-11 5.4-29.2 14.2-40.5 19.6-11.3 5.5-21.2 10.4-22 10.9-.8.6-2.6 1.5-3.9 2-1.3.6-9.3 4.5-17.8 8.7-8.4 4.1-15.6 7.4-15.8 7.1-.6-.6-13.1-32.8-15.8-40.6-1.1-3.4-2.4-6.2-2.8-6.2-.9 0-19.5 6.6-22.4 7.9-1.1.5-15 5.8-31 11.7-15.9 5.9-29.3 11-29.6 11.3-.4.3 4.4 14.1 10.7 30.6 6.2 16.5 11.4 30.3 11.4 30.6 0 .4-2.4 1.7-5.2 2.9-12.7 5.4-44.7 21.9-47.9 24.6-.8.8-1.9 1.4-2.3 1.4-3 0-40.9 27.3-53.5 38.5-23.8 21-41.6 45-49 65.8-2.3 6.6-4.9 20-4.4 22.7.1.3.4 3.3.7 6.6 1.9 19.7 16.5 36.4 40 46 7.3 2.9 22.1 7 29.1 8 2.8.3 5.8.8 6.8 1 2.9.5 20.8 1.6 28.2 1.6 17.6.2 41.6-2.2 63.5-6.3 8.5-1.6 9.8-1.9 17.9-3.8 11-2.7 23.9-6.3 37.5-10.5 6.5-2 12-3.5 12.1-3.4.1.2 3.5 9.1 7.5 19.8 4 10.7 7.4 19.7 7.6 19.9.2.2 3.2-.7 6.7-2.1 5.2-2.1 38.7-16.1 45.2-18.9 1.1-.4 8.5-3.5 16.5-6.8 16.6-6.8 16.1-6 11.6-17.6-4.3-10.9-4.3-10.1 1.1-11.5 2.6-.7 5.3-1.4 5.8-1.6 3.3-.9 77.7-24.4 110.5-34.9 7.4-2.4 21.6-6.9 31.5-10 34.7-11 92.8-30 152.8-50l42.7-14.3.1 56.1c0 30.9.2 57.8.3 59.7.2 1.9.6 7.8 1 13 .3 5.2.8 11.1 1.1 13 .2 1.9.7 7.3 1 12 1.4 18.8 2.8 36.5 3.9 49 .3 3 .8 9.1 1.1 13.5.4 4.4.8 9.6 1 11.5.2 1.9.6 8.1 1 13.8.4 5.7.8 11.1 1 12 .2.9.4 3.4.4 5.4l.1 3.8h13l-.4 2.7c-.3 1.6-1 6.4-1.6 10.8-1 7.8-1.2 8.1-5.9 12.5-2.7 2.5-6.6 6.7-8.7 9.5-2.2 2.7-4.1 5.2-4.4 5.5-.3.3-1.9 2.3-3.5 4.5s-3.7 4.9-4.7 6c-.9 1.1-6.1 7.6-11.5 14.5-5.5 6.9-18.9 23.7-29.7 37.5-10.9 13.7-21.1 26.6-22.6 28.5-9.1 11.3-41.3 52-51.5 65-6.6 8.4-13 16.4-14.2 17.9-1.2 1.4-13.1 16.3-26.3 33.1-23.4 29.6-24.3 30.5-28.8 31.7-2.5.7-6.2 1.5-8.1 1.8-2 .3-16.6 3-32.6 6.1-15.9 3.1-30.1 5.8-31.5 6-5.2.9-28.7 5.4-34.3 6.5-5.5 1.1-5.8 1.3-5.3 3.8.7 3 7.6 44 8.3 49 .5 3.2 2 6.5 9.3 19.6 6.1 11 14.5 26.5 19.3 35.5 2.7 5.2 5.3 9.9 5.7 10.5.4.5 2.8 4.8 5.2 9.5 2.5 4.7 5.8 10.7 7.3 13.5 5.5 9.9 7.8 14.1 12.3 22.5 2.5 4.7 6.8 12.5 9.5 17.5 2.7 4.9 6.6 11.9 8.5 15.5 3.7 6.9 5.3 9.8 14.9 27.5 6.3 11.6 13.3 24.5 16.7 30.8 1.5 2.9 4.2 5 11.4 9.2 5.1 3 9.5 5.5 9.7 5.5.1 0 3.3 1.8 6.9 4 3.6 2.2 6.8 4 7 4 .2 0 3.9 2.1 8.2 4.6 4.3 2.5 12.4 7 18.1 10.1 9.2 4.8 10.5 5.3 11.8 3.9.8-.8 1.5-1.9 1.5-2.5 0-.6.4-1.1.9-1.1s1.1-.6 1.3-1.3c.2-.6 2.9-5.7 6.1-11.3l5.8-10.1-2-4.4c-1-2.4-3.1-7.1-4.6-10.4-2.9-6.5-3.3-7.5-9.3-21-2.2-5-7.7-17.3-12.2-27.5-4.6-10.2-8.3-19.4-8.3-20.5 0-2.1 1.2-14.4 1.8-17.3.3-1.7 1.4-11.7 2-17.5.3-3.1 1.3-10.8 2-15.7.2-1.4.7-5.2 1-8.5.4-3.3.8-7.1 1-8.5.2-1.4.7-5.2 1-8.5.4-3.3.8-7.1 1-8.5.2-1.4.6-5 1-8s.9-6.7 1.1-8.3c.2-1.5.7-5.1.9-8 .8-8 1.6-13.1 2.3-14.4.4-.6 4.5-5.3 9.1-10.3 4.6-4.9 9.2-9.9 10.1-11 .9-1.1 5.7-6.3 10.6-11.6 4.9-5.3 9.7-10.6 10.7-11.8 1-1.2 3.7-4.1 6-6.6s9.4-10.1 15.7-17c6.3-6.9 11.9-13 12.5-13.6.5-.6 4.4-4.8 8.5-9.4 4.1-4.5 8-8.8 8.5-9.4.6-.6 6.5-7 13-14.1 6.6-7.2 12.2-13.1 12.6-13.3.5-.2.8.5.7 1.5 0 1 .2 3.4.5 5.3s.9 6.2 1.2 9.5c.4 3.3.8 6.7 1 7.5.1.8.6 4.4 1 8 .4 3.6.9 7.3 1 8.2.2.9.7 4.8 1 8.5.4 3.7.9 7.7 1.1 8.8.2 1.1.7 4.5 1 7.5.3 3 .7 6.2.9 7 .2.8.7 4.4 1 8 .4 3.6.8 7.6 1 9 .3 1.4.7 5.2 1.1 8.5.3 3.3.7 6.7.9 7.5.1.8.5 4.2.9 7.5s.9 7.1 1.1 8.5c.2 1.4.7 5 1 8 .3 3 .8 6.6 1 8 .2 1.4.6 5 1 8s.8 6.6 1 8c.2 1.4.7 5 1 8 .4 3 1.3 10 2 15.5s1.4 17.4 1.5 26.5c.7 61.2.7 62.1-4 77-3.7 11.3-13.9 39.7-21.7 60-6.7 17.6-7.4 20-7 25 .6 7.4 2.8 12.1 8.5 17.9 3.7 3.9 5.7 5.1 9.7 5.9 18 3.8 43.7 4.7 133.5 4.7 94.3 0 127.4-.8 131.5-2.8 1.7-.9 16.7-7.5 33.5-14.7 16.8-7.2 30.7-13.3 30.9-13.5.4-.4-13.8-33.6-14.8-34.8-.8-.8-2.1-1.1-8.7-2.1-5.7-.9-28.4-4.6-31.9-5.2-1.6-.3-4.6-.7-6.5-1-8.7-1.1-15.4-2.9-28-7.5-7.4-2.8-14.4-5.4-15.5-5.9-1.1-.5-19.5-7.5-41-15.5-27.6-10.4-40.9-15.9-45.5-18.8-7.6-4.9-19.9-16.8-20.1-19.4-.3-3.6.6-20.8 2.7-49.3.3-4.1.7-11.6 1-16.5.3-5 .8-11.7 1.2-15 .3-3.3.6-69.5.7-147 .1-77.6.4-141.9.7-143 .3-1.1.9-5.4 1.4-9.5.4-4.1.8-7.7.9-8 .1-.3.5-4.1.9-8.5.7-7.6.9-8.1 4.2-10.5 2-1.4 4.1-3 4.7-3.5.7-.6 2.8-2.2 4.7-3.5 1.9-1.3 4-2.8 4.5-3.2.6-.5 4.2-3.2 8.2-6.1 7.6-5.4 20.3-14.7 28.5-20.7 2.6-1.9 7.5-5.5 11-8 3.4-2.5 12.4-9.1 19.9-14.7l13.7-10.1.7-5.4c.4-2.9.9-6 1-6.8.8-4.4 1.6-9.9 2-13.5.3-2.2 1-7.6 1.6-12 .7-4.4 1.2-8.8 1.3-9.7.3-2.5.7-2.8 7.1-3.8 3.2-.5 5.9-1.1 6.1-1.3.2-.2.6-4.1.9-8.8.3-4.6.7-11.8 1-15.9.3-4.1.7-12 1-17.5.3-5.5.8-12.9 1-16.5 1.1-18 1.8-29 3-49.5.3-5.5.8-12.9 1-16.5.3-3.6.7-11.2 1-17 .3-5.8.8-12.8 1-15.5.4-5.6 1.6-25.2 2-33.5.4-7.5 1.5-25.1 2-33 .4-6.2 1.1-17.2 2-32.5.9-15.6 1.6-26.3 2-32 .2-3.3.7-11.4 1-18 .8-14.6 1.3-19.3 2-20.4.2-.5 4.7-2.5 9.7-4.6 7.7-3 16.5-6.7 30.3-12.5 1.1-.5 7-3 13-5.5 6.1-2.6 12.4-5.3 14-6 1.7-.7 5.9-2.5 9.5-4 6.4-2.7 13.5-5.7 17.5-7.5 1.1-.5 4.9-2.1 8.5-3.5 3.6-1.5 8.3-3.5 10.5-4.5 2.2-1 5.6-2.5 7.5-3.3 1.9-.8 13-5.6 24.5-10.6 11.6-5 21.4-9.1 21.7-9.1.3 0 2.3 4 4.3 8.9l3.7 9 4.7-1.8c2.5-1.1 10-4.1 16.6-6.9 6.6-2.7 21.7-8.9 33.5-13.7 11.8-4.8 21.6-8.9 21.8-9 .2-.2-2.5-7.3-5.9-15.9-6.1-15.2-6.2-15.6-4.4-17 1.1-.8 6.7-4.3 12.5-7.8 30.6-18.4 55.7-41.1 72.8-65.6 10-14.5 18-32.5 21.3-47.7 1.7-8.4 1.5-26.5-.5-34.8-9.5-39.7-49.7-66.2-107.1-70.3-14.7-1.1-35.3-.6-47.5 1.2-9.7 1.4-27.3 4.7-33.8 6.3-8.5 2.2-6.9 3.9-14.2-14.4-2.8-7.2-5.8-14.4-6.5-16-.7-1.7-2.5-6-4-9.7l-2.8-6.7-6.1 2.3c-9.3 3.6-67.8 25.7-70.3 26.7l-2.3.8 2.6 6.3c1.5 3.5 3.2 7.6 3.9 9.3 2.8 6.5 6.5 15.9 6.5 16.5 0 .5-10.8 4.4-15.5 5.6-.5.2-11.8 3.9-24.9 8.3-13.2 4.5-24.1 7.9-24.4 7.7-.2-.3-.4-56.6-.4-125.3V352.5l-6.5-26c-3.6-14.3-6.6-26.7-6.8-27.5l-8-32-8-32-8-32-8-32-4-16c-2-8-3.9-15.4-4.1-16.5-.2-1.1-1.2-5.2-2.2-9l-1.8-7 4.3-17c2.4-9.3 4.2-17.2 4.1-17.6-.2-.3-4.3-4.1-9.3-8.5-4.9-4.3-8.9-8-8.8-8.3.8-2.1 45.1-63.2 47.2-65.1.3-.3 1.7-1.8 3-3.3l2.4-2.7h-185.2l-3.4 4.2zm11 1793.4c-.3.3-1.2.4-1.9.1-.8-.3-.5-.6.6-.6 1.1-.1 1.7.2 1.3.5z"/></svg>